<svg xmlns="http://www.w3.org/2000/svg" xmlns:xlink="http://www.w3.org/1999/xlink" width="350" zoomAndPan="magnify" viewBox="0 0 262.5 392.999991" height="524" preserveAspectRatio="xMidYMid meet" version="1.0"><defs><g><g id="id1"/></g><clipPath id="id2"><path d="M 0 0.375 L 262 0.375 L 262 392.625 L 0 392.625 Z M 0 0.375 " clip-rule="nonzero"/></clipPath><clipPath id="id3"><path d="M 0 283 L 124 283 L 124 392.625 L 0 392.625 Z M 0 283 " clip-rule="nonzero"/></clipPath></defs><g clip-path="url(#id2)"><path fill="rgb(100%, 100%, 100%)" d="M 0 0.375 L 262.5 0.375 L 262.5 400.125 L 0 400.125 Z M 0 0.375 " fill-opacity="1" fill-rule="nonzero"/><path fill="rgb(6.669617%, 6.669617%, 6.669617%)" d="M 0 0.375 L 262.5 0.375 L 262.5 393.375 L 0 393.375 Z M 0 0.375 " fill-opacity="1" fill-rule="nonzero"/><path fill="rgb(100%, 100%, 100%)" d="M 0 0.375 L 262.5 0.375 L 262.5 393.375 L 0 393.375 Z M 0 0.375 " fill-opacity="1" fill-rule="nonzero"/><path fill="rgb(6.669617%, 6.669617%, 6.669617%)" d="M 0 0.375 L 262.5 0.375 L 262.5 393.375 L 0 393.375 Z M 0 0.375 " fill-opacity="1" fill-rule="nonzero"/></g><path fill="rgb(93.328857%, 24.308777%, 24.308777%)" d="M 187.621094 10.09375 L 197.910156 69.8125 L 251.953125 42.398438 L 187.621094 10.09375 " fill-opacity="1" fill-rule="nonzero"/><path fill="rgb(93.328857%, 24.308777%, 24.308777%)" d="M 236.003906 340.296875 L 206.375 337.339844 L 212.421875 366.496094 L 236.003906 340.296875 " fill-opacity="1" fill-rule="nonzero"/><path fill="rgb(93.328857%, 24.308777%, 24.308777%)" d="M 19.546875 43.441406 L 48.558594 50.148438 L 46.273438 20.457031 L 19.546875 43.441406 " fill-opacity="1" fill-rule="nonzero"/><g clip-path="url(#id3)"><path fill="rgb(93.328857%, 24.308777%, 24.308777%)" d="M 123.582031 416.585938 L -9.917969 416.585938 L -9.917969 283.089844 L 123.582031 416.585938 " fill-opacity="1" fill-rule="nonzero"/></g><path fill="rgb(6.669617%, 6.669617%, 6.669617%)" d="M -10.164062 150.289062 L 230.714844 150.289062 L 213.101562 192.871094 L 230.714844 235.484375 L -10.164062 235.484375 L -10.164062 150.289062 " fill-opacity="1" fill-rule="nonzero"/><path fill="rgb(93.328857%, 24.308777%, 24.308777%)" d="M -13.707031 239.03125 L 236.03125 239.03125 L 216.964844 192.90625 L 236.03125 146.78125 L -13.707031 146.78125 L -13.707031 239.03125 M 15.882812 150.289062 L 230.714844 150.289062 L 213.101562 192.871094 L 230.714844 235.484375 L -10.164062 235.484375 L -10.164062 150.289062 L 15.882812 150.289062 " fill-opacity="1" fill-rule="nonzero"/><g fill="rgb(100%, 100%, 100%)" fill-opacity="1"><g transform="translate(13.240326, 205.085619)"><g><path d="M 19.078125 -11.96875 L 8.15625 -11.96875 L 8.15625 -4.578125 L 20.984375 -4.578125 L 20.984375 0 L 2.46875 0 L 2.46875 -27.609375 L 20.9375 -27.609375 L 20.9375 -23 L 8.15625 -23 L 8.15625 -16.421875 L 19.078125 -16.421875 Z M 19.078125 -11.96875 "/></g></g></g><g fill="rgb(100%, 100%, 100%)" fill-opacity="1"><g transform="translate(35.07821, 205.085619)"><g><path d="M 9.90625 -27.609375 L 17 -7.59375 L 24.046875 -27.609375 L 31.515625 -27.609375 L 31.515625 0 L 25.8125 0 L 25.8125 -7.546875 L 26.375 -20.578125 L 18.921875 0 L 15.015625 0 L 7.59375 -20.5625 L 8.15625 -7.546875 L 8.15625 0 L 2.46875 0 L 2.46875 -27.609375 Z M 9.90625 -27.609375 "/></g></g></g><g fill="rgb(100%, 100%, 100%)" fill-opacity="1"><g transform="translate(69.086166, 205.085619)"><g/></g></g><g fill="rgb(100%, 100%, 100%)" fill-opacity="1"><g transform="translate(78.75398, 205.085619)"><g><path d="M 2.46875 0 L 2.46875 -27.609375 L 12.140625 -27.609375 C 15.492188 -27.609375 18.035156 -26.96875 19.765625 -25.6875 C 21.492188 -24.40625 22.359375 -22.523438 22.359375 -20.046875 C 22.359375 -18.691406 22.007812 -17.5 21.3125 -16.46875 C 20.625 -15.4375 19.660156 -14.679688 18.421875 -14.203125 C 19.835938 -13.847656 20.953125 -13.132812 21.765625 -12.0625 C 22.578125 -10.988281 22.984375 -9.675781 22.984375 -8.125 C 22.984375 -5.46875 22.132812 -3.453125 20.4375 -2.078125 C 18.75 -0.710938 16.335938 -0.0195312 13.203125 0 Z M 8.15625 -12.03125 L 8.15625 -4.578125 L 13.03125 -4.578125 C 14.375 -4.578125 15.421875 -4.894531 16.171875 -5.53125 C 16.921875 -6.164062 17.296875 -7.046875 17.296875 -8.171875 C 17.296875 -10.703125 15.988281 -11.988281 13.375 -12.03125 Z M 8.15625 -16.046875 L 12.359375 -16.046875 C 15.234375 -16.097656 16.671875 -17.242188 16.671875 -19.484375 C 16.671875 -20.734375 16.304688 -21.628906 15.578125 -22.171875 C 14.847656 -22.722656 13.703125 -23 12.140625 -23 L 8.15625 -23 Z M 8.15625 -16.046875 "/></g></g></g><g fill="rgb(100%, 100%, 100%)" fill-opacity="1"><g transform="translate(103.530136, 205.085619)"><g><path d="M 12.6875 -10.109375 L 8.15625 -10.109375 L 8.15625 0 L 2.46875 0 L 2.46875 -27.609375 L 12.734375 -27.609375 C 15.992188 -27.609375 18.507812 -26.878906 20.28125 -25.421875 C 22.050781 -23.972656 22.9375 -21.921875 22.9375 -19.265625 C 22.9375 -17.378906 22.523438 -15.804688 21.703125 -14.546875 C 20.890625 -13.296875 19.65625 -12.296875 18 -11.546875 L 23.96875 -0.265625 L 23.96875 0 L 17.859375 0 Z M 8.15625 -14.71875 L 12.75 -14.71875 C 14.175781 -14.71875 15.28125 -15.082031 16.0625 -15.8125 C 16.84375 -16.539062 17.234375 -17.539062 17.234375 -18.8125 C 17.234375 -20.113281 16.863281 -21.132812 16.125 -21.875 C 15.382812 -22.625 14.253906 -23 12.734375 -23 L 8.15625 -23 Z M 8.15625 -14.71875 "/></g></g></g><g fill="rgb(100%, 100%, 100%)" fill-opacity="1"><g transform="translate(128.306292, 205.085619)"><g><path d="M 19.078125 -11.96875 L 8.15625 -11.96875 L 8.15625 -4.578125 L 20.984375 -4.578125 L 20.984375 0 L 2.46875 0 L 2.46875 -27.609375 L 20.9375 -27.609375 L 20.9375 -23 L 8.15625 -23 L 8.15625 -16.421875 L 19.078125 -16.421875 Z M 19.078125 -11.96875 "/></g></g></g><g fill="rgb(100%, 100%, 100%)" fill-opacity="1"><g transform="translate(150.144176, 205.085619)"><g><path d="M 12.671875 -6.84375 L 18.921875 -27.609375 L 25.265625 -27.609375 L 15.640625 0 L 9.71875 0 L 0.125 -27.609375 L 6.453125 -27.609375 Z M 12.671875 -6.84375 "/></g></g></g><g fill="rgb(100%, 100%, 100%)" fill-opacity="1"><g transform="translate(175.52694, 205.085619)"><g><path d="M 19.078125 -11.96875 L 8.15625 -11.96875 L 8.15625 -4.578125 L 20.984375 -4.578125 L 20.984375 0 L 2.46875 0 L 2.46875 -27.609375 L 20.9375 -27.609375 L 20.9375 -23 L 8.15625 -23 L 8.15625 -16.421875 L 19.078125 -16.421875 Z M 19.078125 -11.96875 "/></g></g></g></svg>